HIERARCHY
ROOT Hips
{
  OFFSET 5.84602e-005 68.8428 3.50346
  CHANNELS 6 Xposition Yposition Zposition Zrotation Xrotation Yrotation
  JOINT Spine
  {
    OFFSET 0 8.597 -4.6522
    CHANNELS 3 Zrotation Xrotation Yrotation
    JOINT Spine1
    {
      OFFSET 0 7.8454 0.4098
      CHANNELS 3 Zrotation Xrotation Yrotation
      JOINT Spine2
      {
        OFFSET 0 9.7078 -2.1609
        CHANNELS 3 Zrotation Xrotation Yrotation
        JOINT Neck
        {
          OFFSET 0 21.8761 -0.4549
          CHANNELS 3 Zrotation Xrotation Yrotation
          JOINT Head
          {
            OFFSET 0 12.3537 3.3602
            CHANNELS 3 Zrotation Xrotation Yrotation
            End Site
            {
              OFFSET 0.0001 18.9506 0.5657
            }
          }
        }
        JOINT LeftShoulder
        {
          OFFSET 2.2086 21.1115 7.2329
          CHANNELS 3 Zrotation Xrotation Yrotation
          JOINT LeftArm
          {
            OFFSET 13.1193 3.0282 -4.8998
            CHANNELS 3 Zrotation Xrotation Yrotation
            JOINT LeftForeArm
            {
              OFFSET 27.4081 -0.0973053 -0.2375
              CHANNELS 3 Zrotation Xrotation Yrotation
              JOINT LeftHand
              {
                OFFSET 22.8641 0.0662994 -0.1369
                CHANNELS 3 Zrotation Xrotation Yrotation
                JOINT LeftHandIndex1
                {
                  OFFSET 8.8614 0.775009 2.4612
                  CHANNELS 3 Zrotation Xrotation Yrotation
                  JOINT LeftHandIndex2
                  {
                    OFFSET 3.3146 -0.808304 0.5841
                    CHANNELS 3 Zrotation Xrotation Yrotation
                    JOINT LeftHandIndex3
                    {
                      OFFSET 2.2628 -0.552002 0.3989
                      CHANNELS 3 Zrotation Xrotation Yrotation
                      End Site
                      {
                        OFFSET 1.6102 -0.4807 0.2612
                      }
                    }
                  }
                }
                JOINT LeftHandMiddle1
                {
                  OFFSET 8.9937 0.895004 0.2143
                  CHANNELS 3 Zrotation Xrotation Yrotation
                  JOINT LeftHandMiddle2
                  {
                    OFFSET 4.0984 0.0113983 -0.0242
                    CHANNELS 3 Zrotation Xrotation Yrotation
                    JOINT LeftHandMiddle3
                    {
                      OFFSET 2.2716 0.00689697 -0.0138001
                      CHANNELS 3 Zrotation Xrotation Yrotation
                      End Site
                      {
                        OFFSET 2.0404 -0.1441 0.0027
                      }
                    }
                  }
                }
                JOINT LeftHandRing1
                {
                  OFFSET 8.5234 0.597198 -2.0164
                  CHANNELS 3 Zrotation Xrotation Yrotation
                  JOINT LeftHandRing2
                  {
                    OFFSET 3.7188 -0.188293 -0.2328
                    CHANNELS 3 Zrotation Xrotation Yrotation
                    JOINT LeftHandRing3
                    {
                      OFFSET 2.1191 -0.106598 -0.1332
                      CHANNELS 3 Zrotation Xrotation Yrotation
                      End Site
                      {
                        OFFSET 1.8737 -0.2304 -0.0886
                      }
                    }
                  }
                }
                JOINT LeftHandPinky1
                {
                  OFFSET 7.9094 -0.601089 -3.4825
                  CHANNELS 3 Zrotation Xrotation Yrotation
                  JOINT LeftHandPinky2
                  {
                    OFFSET 2.2874 -0.477005 -0.6314
                    CHANNELS 3 Zrotation Xrotation Yrotation
                    JOINT LeftHandPinky3
                    {
                      OFFSET 1.6774 -0.349396 -0.4633
                      CHANNELS 3 Zrotation Xrotation Yrotation
                      End Site
                      {
                        OFFSET 1.4888 -0.4091 -0.3416
                      }
                    }
                  }
                }
                JOINT LeftHandThumb1
                {
                  OFFSET 1.833 -1.3875 1.3896
                  CHANNELS 3 Zrotation Xrotation Yrotation
                  JOINT LeftHandThumb2
                  {
                    OFFSET 3.4129 -1.121 2.5732
                    CHANNELS 3 Zrotation Xrotation Yrotation
                    JOINT LeftHandThumb3
                    {
                      OFFSET 2.2474 -0.804199 1.6192
                      CHANNELS 3 Zrotation Xrotation Yrotation
                      End Site
                      {
                        OFFSET 1.6527 -0.5689 1.1317
                      }
                    }
                  }
                }
              }
            }
          }
        }
        JOINT RightShoulder
        {
          OFFSET -2.2086 21.1115 7.2329
          CHANNELS 3 Zrotation Xrotation Yrotation
          JOINT RightArm
          {
            OFFSET -13.1216 3.0287 -4.9007
            CHANNELS 3 Zrotation Xrotation Yrotation
            JOINT RightForeArm
            {
              OFFSET -27.4081 -0.0973053 -0.2375
              CHANNELS 3 Zrotation Xrotation Yrotation
              JOINT RightHand
              {
                OFFSET -22.8641 0.0664063 -0.1369
                CHANNELS 3 Zrotation Xrotation Yrotation
                JOINT RightHandIndex1
                {
                  OFFSET -8.8614 0.774994 2.4612
                  CHANNELS 3 Zrotation Xrotation Yrotation
                  JOINT RightHandIndex2
                  {
                    OFFSET -3.3146 -0.808304 0.5841
                    CHANNELS 3 Zrotation Xrotation Yrotation
                    JOINT RightHandIndex3
                    {
                      OFFSET -2.2628 -0.552002 0.3989
                      CHANNELS 3 Zrotation Xrotation Yrotation
                      End Site
                      {
                        OFFSET -1.6102 -0.4807 0.2612
                      }
                    }
                  }
                }
                JOINT RightHandMiddle1
                {
                  OFFSET -8.9937 0.894989 0.2143
                  CHANNELS 3 Zrotation Xrotation Yrotation
                  JOINT RightHandMiddle2
                  {
                    OFFSET -4.0984 0.0113983 -0.0242
                    CHANNELS 3 Zrotation Xrotation Yrotation
                    JOINT RightHandMiddle3
                    {
                      OFFSET -2.2716 0.00691223 -0.0138001
                      CHANNELS 3 Zrotation Xrotation Yrotation
                      End Site
                      {
                        OFFSET -2.0404 -0.1441 0.0027
                      }
                    }
                  }
                }
                JOINT RightHandRing1
                {
                  OFFSET -8.5234 0.597198 -2.0164
                  CHANNELS 3 Zrotation Xrotation Yrotation
                  JOINT RightHandRing2
                  {
                    OFFSET -3.7188 -0.188309 -0.2328
                    CHANNELS 3 Zrotation Xrotation Yrotation
                    JOINT RightHandRing3
                    {
                      OFFSET -2.1191 -0.106598 -0.1332
                      CHANNELS 3 Zrotation Xrotation Yrotation
                      End Site
                      {
                        OFFSET -1.8737 -0.2304 -0.0886
                      }
                    }
                  }
                }
                JOINT RightHandPinky1
                {
                  OFFSET -7.9094 -0.601105 -3.4825
                  CHANNELS 3 Zrotation Xrotation Yrotation
                  JOINT RightHandPinky2
                  {
                    OFFSET -2.2874 -0.477005 -0.6314
                    CHANNELS 3 Zrotation Xrotation Yrotation
                    JOINT RightHandPinky3
                    {
                      OFFSET -1.6774 -0.349396 -0.4633
                      CHANNELS 3 Zrotation Xrotation Yrotation
                      End Site
                      {
                        OFFSET -1.4888 -0.4091 -0.3416
                      }
                    }
                  }
                }
                JOINT RightHandThumb1
                {
                  OFFSET -1.833 -1.38751 1.3896
                  CHANNELS 3 Zrotation Xrotation Yrotation
                  JOINT RightHandThumb2
                  {
                    OFFSET -3.41299 -1.12099 2.5732
                    CHANNELS 3 Zrotation Xrotation Yrotation
                    JOINT RightHandThumb3
                    {
                      OFFSET -2.24741 -0.804108 1.6192
                      CHANNELS 3 Zrotation Xrotation Yrotation
                      End Site
                      {
                        OFFSET -1.6527 -0.5689 1.1317
                      }
                    }
                  }
                }
              }
            }
          }
        }
      }
    }
  }
  JOINT RightUpLeg
  {
    OFFSET -9.1966 3.8861 -0.7581
    CHANNELS 3 Zrotation Xrotation Yrotation
    JOINT RightLeg
    {
      OFFSET -0.7359 -41.0265 0
      CHANNELS 3 Zrotation Xrotation Yrotation
      JOINT RightFoot
      {
        OFFSET 0 -40.2855 0
        CHANNELS 3 Zrotation Xrotation Yrotation
        JOINT RightToeBase
        {
          OFFSET 0 -5.6122 11.7359
          CHANNELS 3 Zrotation Xrotation Yrotation
          End Site
          {
            OFFSET 0 0 7.8731
          }
        }
      }
    }
  }
  JOINT LeftUpLeg
  {
    OFFSET 9.1965 3.8864 -0.7581
    CHANNELS 3 Zrotation Xrotation Yrotation
    JOINT LeftLeg
    {
      OFFSET 0.7359 -41.0268 0
      CHANNELS 3 Zrotation Xrotation Yrotation
      JOINT LeftFoot
      {
        OFFSET 0 -40.2855 0
        CHANNELS 3 Zrotation Xrotation Yrotation
        JOINT LeftToeBase
        {
          OFFSET 0 -5.6122 11.7359
          CHANNELS 3 Zrotation Xrotation Yrotation
          End Site
          {
            OFFSET 0 0 7.8731
          }
        }
      }
    }
  }
}
MOTION
Frames:	4
Frame Time:	0.0333333
0.790558 13.9534 18.2366 173.405 -88.2826 -6.38877 -0.0937333 -3.60124 -0.280043 -0.205752 -7.20197 -0.567689 -0.205752 -7.20195 -0.56769 7.00799 -2.93457 -4.641 -1.07255e-006 -13.086 -2.77463e-007 10.55 6.08124 -17.0441 -16.9555 -17.1796 -31.6005 2.37079 7.98383 -45.4166 59.2524 -1.77854 -5.95695 -1.59028e-015 1.98785e-015 7.95139e-016 4.54784e-007 4.80851e-007 -2.38355e-007 1.59028e-015 5.96354e-016 -0 -1.59028e-015 1.98785e-015 7.95139e-016 -0.0145894 -8.8138e-005 3.19437e-006 1.59028e-015 -9.93923e-017 3.97569e-016 -1.59028e-015 1.98785e-015 7.95139e-016 -0.0187914 -0.00117901 5.91396e-005 1.59028e-015 1.68967e-015 -7.95139e-016 -1.59028e-015 1.98785e-015 7.95139e-016 -0.012225 -0.00323469 0.000664245 -4.77083e-015 -1.39149e-015 -3.97569e-016 -1.59028e-015 1.98785e-015 7.95139e-016 4.54784e-007 4.80851e-007 -2.38355e-007 1.59028e-015 5.96354e-016 -0 22.6221 3.46904 2.47847 8.35064 9.11212 41.7759 -11.5376 -13.2931 26.979 -57.9596 0.772309 4.04516 -1.781e-007 -2.34001e-007 -5.06994e-007 -5.64624e-007 6.37181e-007 3.98001e-007 -1.781e-007 -2.34001e-007 -5.06994e-007 -1.781e-007 -2.34001e-007 -5.06994e-007 0.0149784 -9.02202e-005 3.52517e-006 4.77083e-015 1.59028e-015 -3.18055e-015 -1.781e-007 -2.34001e-007 -5.06994e-007 0.0190086 -0.0011912 -5.9659e-005 -1.80657e-007 -2.33926e-007 -5.06946e-007 -1.781e-007 -2.34001e-007 -5.06994e-007 0.0123062 -0.00325658 -0.000682089 -1.79765e-007 -2.3362e-007 -5.06872e-007 -1.781e-007 -2.34001e-007 -5.06994e-007 -5.64624e-007 6.37181e-007 3.98001e-007 -1.781e-007 -2.34001e-007 -5.06994e-007 -13.8434 -35.8235 -25.059 5.90288 40.828 -3.99961 -3.36587 50.5958 7.08944 -6.57137e-008 -3.25073e-008 -2.00414e-007 12.993 -34.9683 24.5239 -5.68721 39.0518 4.08784 3.30971 50.3039 -6.91019 7.49143e-006 4.13904e-006 2.46397e-007 
0.791491 14.159 18.3664 175.356 -87.4295 -4.4277 -0.0923757 -3.6771 -0.280748 -0.20348 -7.35364 -0.569215 -0.20348 -7.35365 -0.569215 7.01104 -3.38526 -4.5855 -4.69019e-008 -13.1526 4.10307e-007 10.7942 5.6853 -16.5953 -17.0284 -17.1321 -31.7276 2.36798 7.98242 -45.9145 59.2988 -1.68172 -5.62486 -3.18055e-015 2.48481e-015 -7.95139e-016 -4.77083e-015 1.49089e-015 -3.97569e-016 -3.18055e-015 1.98785e-015 -3.97569e-016 -3.18055e-015 2.48481e-015 -7.95139e-016 -0.0146284 -8.87772e-005 -7.15651e-007 1.59028e-015 3.77691e-015 1.59028e-015 -3.18055e-015 2.48481e-015 -7.95139e-016 -0.0187796 -0.0011769 6.23129e-005 3.18055e-015 3.08116e-015 -3.97569e-016 -3.18055e-015 2.48481e-015 -7.95139e-016 -0.0122591 -0.00324491 0.000678312 -1.42762e-031 6.85807e-015 1.19271e-015 -3.18055e-015 2.48481e-015 -7.95139e-016 -4.77083e-015 1.49089e-015 -3.97569e-016 -3.18055e-015 1.98785e-015 -3.97569e-016 22.4112 3.25992 2.25549 8.38454 9.15715 42.0129 -11.5701 -13.3117 27.2461 -58.0718 0.725608 3.821 1.59028e-015 -1.59028e-015 -0 -1.79272e-007 -2.33094e-007 -5.09012e-007 -2.49085e-007 -6.38671e-007 -2.71713e-006 1.59028e-015 -1.59028e-015 -0 0.01498 -9.18122e-005 -1.34898e-006 -2.47854e-007 -6.39034e-007 -2.71704e-006 1.59028e-015 -1.59028e-015 -0 0.0190048 -0.00119403 -5.84659e-005 6.36111e-015 -3.18055e-015 -1.27222e-014 1.59028e-015 -1.59028e-015 -0 0.0122708 -0.0032496 -0.00068149 -2.48148e-007 -6.39231e-007 -2.71711e-006 1.59028e-015 -1.59028e-015 -0 -1.79272e-007 -2.33094e-007 -5.09012e-007 -2.49085e-007 -6.38671e-007 -2.71713e-006 -14.2338 -36.8668 -25.8055 5.86887 41.1275 -4.01491 -3.88323 50.5668 7.59875 1.99767e-006 1.61792e-007 6.76632e-007 13.3897 -36.0437 25.2461 -5.67496 39.3989 4.11737 3.80578 50.2516 -7.40885 6.7364e-008 -3.37903e-008 1.99653e-007 
0.792448 14.3654 18.4945 176.333 -86.5751 -3.44238 -0.0910116 -3.7529 -0.281429 -0.201189 -7.50526 -0.570689 -0.201189 -7.50529 -0.570689 7.01444 -3.83681 -4.52991 -2.11491e-006 -13.2191 6.11549e-007 11.0414 5.29145 -16.1452 -17.1013 -17.0845 -31.8545 2.36516 7.98103 -46.4124 59.3445 -1.58464 -5.29287 -2.75869e-033 9.93923e-017 1.59028e-015 0 3.57812e-015 -0 -1.59028e-015 3.47873e-015 3.97569e-016 -2.75869e-033 9.93923e-017 1.59028e-015 -0.014618 -8.72306e-005 2.6992e-006 1.59028e-015 -2.5842e-015 3.97569e-016 -2.75869e-033 9.93923e-017 1.59028e-015 -0.0187709 -0.00117748 6.05286e-005 1.44831e-032 -6.95746e-016 1.19271e-015 -2.75869e-033 9.93923e-017 1.59028e-015 -0.012263 -0.0032463 0.000677373 2.20695e-032 -1.59028e-015 7.95139e-016 -2.75869e-033 9.93923e-017 1.59028e-015 0 3.57812e-015 -0 -1.59028e-015 3.47873e-015 3.97569e-016 22.1996 3.05169 2.03178 8.41825 9.20234 42.25 -11.6025 -13.3304 27.5132 -58.1841 0.679343 3.59676 1.76556e-031 -3.18055e-015 3.18055e-015 -7.42617e-007 4.03362e-007 -1.08947e-007 1.59028e-015 0 -0 1.76556e-031 -3.18055e-015 3.18055e-015 0.0150189 -9.16926e-005 -4.9553e-006 4.77083e-015 -6.36111e-015 -3.18055e-015 1.76556e-031 -3.18055e-015 3.18055e-015 0.0190212 -0.00118929 -5.58894e-005 1.27222e-014 -2.38542e-014 1.27222e-014 1.76556e-031 -3.18055e-015 3.18055e-015 0.0122224 -0.00323373 -0.000675188 -3.18055e-015 0 -6.36111e-015 1.76556e-031 -3.18055e-015 3.18055e-015 -7.42617e-007 4.03362e-007 -1.08947e-007 1.59028e-015 0 -0 -14.6462 -37.9052 -26.5706 5.83502 41.4264 -4.02997 -4.3996 50.5339 8.10695 1.71998e-006 7.60828e-006 -2.3215e-007 13.8084 -37.1142 25.9869 -5.66325 39.7458 4.14698 4.30075 50.1965 -7.90618 1.08211e-006 2.15649e-006 1.32113e-007 
0.793429 14.5723 18.621 176.917 -85.7205 -2.84891 -0.0896417 -3.8287 -0.282119 -0.198895 -7.65677 -0.572179 -0.198895 -7.6568 -0.572179 7.0184 -4.28758 -4.47427 1.71227e-006 -13.2857 5.14384e-008 11.2915 4.89961 -15.6937 -17.174 -17.0367 -31.9813 2.36233 7.97968 -46.9102 59.3898 -1.48729 -4.96102 -1.65521e-032 1.19271e-015 7.95139e-016 1.59028e-015 0 -0 -4.13804e-033 5.96354e-016 3.97569e-016 -1.65521e-032 1.19271e-015 7.95139e-016 -0.0145861 -8.86679e-005 -9.82915e-006 -3.18055e-015 -1.19271e-015 7.95139e-016 -1.65521e-032 1.19271e-015 7.95139e-016 -0.0187592 -0.00117672 5.89295e-005 4.51344e-007 4.82835e-007 -2.38918e-007 -1.65521e-032 1.19271e-015 7.95139e-016 -0.012235 -0.00323909 0.0006808 1.59028e-015 3.37934e-015 3.97569e-016 -1.65521e-032 1.19271e-015 7.95139e-016 1.59028e-015 0 -0 -4.13804e-033 5.96354e-016 3.97569e-016 21.9873 2.84428 1.80738 8.45178 9.24763 42.487 -11.6348 -13.3493 27.7804 -58.2966 0.633511 3.37243 3.18055e-015 2.54444e-014 -0 -4.77083e-015 3.18055e-014 -0 1.59028e-015 3.02153e-014 1.27222e-014 3.18055e-015 2.54444e-014 -0 0.0149959 -9.11733e-005 -5.32943e-006 0 6.36111e-015 -0 3.18055e-015 2.54444e-014 -0 0.0189578 -0.00118688 -5.40206e-005 -1.59028e-015 0 -1.27222e-014 3.18055e-015 2.54444e-014 -0 0.0122497 -0.00324229 -0.000679052 -7.95139e-015 -3.18055e-015 3.18055e-015 3.18055e-015 2.54444e-014 -0 -4.77083e-015 3.18055e-014 -0 1.59028e-015 3.02153e-014 1.27222e-014 -15.0818 -38.938 -27.3555 5.80134 41.7252 -4.04487 -4.91535 50.4984 8.61436 -6.57668e-008 -3.24569e-008 -2.00406e-007 14.2501 -38.1791 26.7475 -5.65211 40.0925 4.17669 4.79446 50.1387 -8.40208 -3.08918e-008 -7.7127e-006 5.3366e-008 
